#!OML:ASF F:\VICON\USERDATA\INSTALL\rory3\rory3.ASF
:FULLY-SPECIFIED
:DEGREES
37
root 0.41584954678949576 18.316194557855805 14.449622952464534 1.1075420329850965 -3.443537137092135 1.4342005849418706
lfemur 11.956170405060103 -4.883689963003976 -27.619554719344958
ltibia 37.52424048791394
lfoot 14.214527475121217 -14.436324563408007
ltoes -4.7425119788842505
rfemur -32.430738350333414 1.5672757381155629 24.368852676171
rtibia 22.700082594504032
rfoot -2.0935128257632996 -2.271469125763938
rtoes -6.66583660489677
lowerback 12.062722586448514 -1.8387047106056431 -2.2433371621731073
upperback -0.508829733368914 -2.643762721902822 1.8384287848829015
thorax -7.075752245084572 -1.1639881487240205 3.9288437623852834
lowerneck -19.33745146040426 -2.4855553132823793 -2.2924732802365573
upperneck 17.416984124483033 -3.0704107605488935 1.1572162570424198
head 8.633336276087181 -1.4493374931412468 0.37634115277286734
lclavicle -2.512621406042045e-15 5.088060331046501e-16
lhumerus -30.71701534823815 -13.406720241888873 88.49375706551776
lradius 72.12197237466103
lwrist 19.562065103079824
lhand -25.666227705786405 10.923828791263679
lfingers 7.125019999999999
lthumb 0.8681868524245215 40.88837196670858
rclavicle -2.512621406042045e-15 5.088060331046501e-16
rhumerus -48.94547201555986 -13.53329235933083 -86.04370814361621
rradius 69.73626575295494
rwrist 0.43348191546279535
rhand -16.551536974378045 31.95953555765035
rfingers 7.125019999999999
rthumb 9.66731092686746 1.7797272663552905
38
root 0.4190119612089271 18.209281525554175 15.542704131435045 0.7173548067908239 -3.738945803090587 1.430543788999231
lfemur 11.236254116659925 -4.220884172335685 -26.743417635447067
ltibia 42.25852750945138
lfoot 13.613538907832874 -13.976902762003286
ltoes -2.8840996268340637
rfemur -31.345537065423933 1.3835537283955877 25.2383991056548
rtibia 25.35742420024639
rfoot -2.2872343690696875 -1.0902215700212263
rtoes -3.2588936631829952
lowerback 12.322977096452016 -1.5927954203680184 -1.9326901726796069
upperback -0.33315718421640067 -2.290032245944788 1.8456910590277225
thorax -7.088147673050929 -1.002790053833548 3.80523202914266
lowerneck -19.11245090667251 -2.5202516777599633 -2.3853405953496605
upperneck 17.348750389240287 -3.0971638050515753 1.116407050978594
head 8.581920596963771 -1.47040021727514 0.3641356581704629
lclavicle -1.9173417608106443e-15 9.261703271654857e-16
lhumerus -30.97166376696447 -12.63354903673613 88.7608170987789
lradius 69.92238005972376
lwrist 19.62180627782593
lhand -26.226724336940148 10.474024030784266
lfingers 7.125019999999999
lthumb 0.3268658101026436 40.437166451406725
rclavicle -1.9173417608106443e-15 9.261703271654857e-16
rhumerus -48.043549309204806 -13.414785909584705 -86.10570375891922
rradius 69.36393714861998
rwrist 0.6033793988626983
rhand -16.745535331340317 32.04210964935723
rfingers 7.125019999999999
rthumb 9.480146730295342 1.894646332303331
39
root 0.4044176055002468 18.07806553252987 15.990346598485534 0.2220934731725689 -4.251573510614823 0.9063339806627209
lfemur 9.06171803174513 -3.530441464490898 -25.306256069113232
ltibia 46.78479245687136
lfoot 12.76369614177167 -13.351733970131164
ltoes -1.9365119898010468
rfemur -30.454077993130614 1.4818150173216402 26.087811514534877
rtibia 27.815878425897807
rfoot -3.9794282310816285 -0.33633489551227314
rtoes 1.3110853406788472
lowerback 12.520753502354596 -1.3261111245725834 -1.5995367761196977
upperback -0.19753734364570955 -1.88594405327818 1.903221081868132
thorax -7.14542743574043 -0.8161774893509011 3.499274491729306
lowerneck -18.96104093439712 -2.5468772226181313 -2.415181587932338
upperneck 17.29437127715951 -3.129343239812862 0.9752565639564146
head 8.533802852694604 -1.4926113667848997 0.31217027133055564
lclavicle -2.424377268361908e-15 5.70676031804781e-16
lhumerus -31.961942022957754 -11.918334860449793 89.03709249206858
lradius 67.2678019216494
lwrist 19.388454053091532
lhand -26.579799322913185 10.062039109337
lfingers 7.125019999999999
lthumb -0.014123945894926715 40.02560161991545
rclavicle -2.424377268361908e-15 5.70676031804781e-16
rhumerus -47.288495558357646 -13.26632745845675 -86.38830843300798
rradius 68.49058394927766
rwrist 0.49210520157694715
rhand -17.03231629698985 31.907091551266284
rfingers 7.125019999999999
rthumb 9.203515373587168 1.806866743959906
40
root 0.37532943933328955 17.906427448683946 16.115418689270342 -0.20793086187789478 -4.90307423087845 0.09832410830182825
lfemur 6.40078028565479 -2.458021296551143 -23.302052450103016
ltibia 51.979407383818035
lfoot 11.008138921635007 -12.055871298094065
ltoes -1.163159905245819
rfemur -30.155497004881436 1.761383720676375 26.9685753126275
rtibia 31.341074613846484
rfoot -6.179670348983231 -0.7567215783453154
rtoes 5.178426450854941
lowerback 12.785525912180951 -1.0409092493903473 -1.1341709775048627
upperback -0.0769395988221287 -1.4100394186241467 2.045983267107761
thorax -7.2575423302174285 -0.5998100023264274 3.181700326357242
lowerneck -18.973302038520202 -2.579309008818173 -2.3750156998791603
upperneck 17.26940570306925 -3.1591904400163004 0.7873355463071416
head 8.517001165618263 -1.5186587740596402 0.22317634600912192
lclavicle -3.012892944007105e-15 1.5805410727929617e-16
lhumerus -33.07256248629136 -11.092290065655792 89.32292186378902
lradius 64.41444662508506
lwrist 19.150144286159108
lhand -27.013871667643755 9.949634238243165
lfingers 7.125019999999999
lthumb -0.43333941687072314 39.91606688170883
rclavicle -3.012892944007105e-15 1.5805410727929617e-16
rhumerus -46.19025883109664 -12.841647237793154 -86.68706205418142
rradius 67.38128234453347
rwrist 0.1937863799507471
rhand -17.27789119449354 31.865193010955466
rfingers 7.125019999999999
rthumb 8.966580765369702 1.821139993272432
